<?xml version="1.0" encoding="utf-8"?>
<!-- Generator: Adobe Illustrator 19.2.0, SVG Export Plug-In . SVG Version: 6.00 Build 0)  -->
<svg version="1.1" id="Layer_1" xmlns="http://www.w3.org/2000/svg" xmlns:xlink="http://www.w3.org/1999/xlink" x="0px" y="0px"
	 viewBox="0 0 100 100" style="enable-background:new 0 0 100 100;" xml:space="preserve">
<style type="text/css">
	.st0{fill:#010101;stroke:#010101;stroke-miterlimit:10;}
	.st1{fill:#010101;stroke:#FFFFFF;stroke-miterlimit:10;}
	.st2{fill:#FFFFFF;}
	.st3{font-family:'Goulong';}
	.st4{font-size:9.8px;}
	.st5{font-size:9.7731px;}
	.st6{font-size:9.7986px;}
	.st7{font-size:9.8396px;}
	.st8{font-size:9.8557px;}
	.st9{font-size:9.7651px;}
	.st10{font-size:9.8167px;}
	.st11{font-size:9.7632px;}
	.st12{font-size:9.7696px;}
	.st13{font-size:9.7999px;}
	.st14{font-size:4.2392px;}
	.st15{font-size:4.2467px;}
	.st16{font-size:4.2386px;}
	.st17{font-size:4.2196px;}
	.st18{font-size:4.2555px;}
	.st19{font-size:4.2466px;}
	.st20{font-size:4.2352px;}
	.st21{font-size:4.2539px;}
	.st22{font-size:4.2407px;}
	.st23{font-size:4.2469px;}
	.st24{font-size:4.2341px;}
	.st25{font-size:4.2647px;}
	.st26{font-size:4.2316px;}
	.st27{font-size:4.252px;}
	.st28{font-size:4.2335px;}
	.st29{font-size:4.235px;}
	.st30{font-size:4.2358px;}
	.st31{font-size:4.2475px;}
	.st32{fill:#010101;}
</style>
<circle class="st0" cx="50" cy="50.1" r="49"/>
<circle class="st1" cx="50" cy="50.1" r="45.7"/>
<circle class="st1" cx="50" cy="50.1" r="32.7"/>
<text transform="matrix(0.5974 -0.802 0.802 0.5974 20.3718 29.8052)" class="st2 st3 st4">I</text>
<text transform="matrix(0.722 -0.6919 0.6919 0.722 22.8087 26.597)" class="st2 st3 st5">A</text>
<text transform="matrix(0.8601 -0.5101 0.5101 0.8601 28.609 21.2057)" class="st2 st3 st6">N</text>
<text transform="matrix(0.9867 -0.1626 0.1626 0.9867 40.1857 15.5483)" class="st2 st3 st4">M</text>
<text transform="matrix(0.996 8.963951e-02 -8.964038e-02 0.996 49.4998 14.1964)" class="st2 st3 st7">O</text>
<text transform="matrix(0.9446 0.3281 -0.3281 0.9446 58.6054 15.2577)" class="st2 st3 st8">R</text>
<text transform="matrix(0.853 0.5219 -0.5219 0.853 66.0373 18.1508)" class="st2 st3 st9">E</text>
<text transform="matrix(0.7184 0.6957 -0.6957 0.7184 72.4563 22.1183)" class="st2 st3 st4">N</text>
<text transform="matrix(0.5291 0.8486 -0.8486 0.5291 78.4327 28.1851)" class="st2 st3 st10">O</text>
<text transform="matrix(0.3011 0.9536 -0.9536 0.3011 7.6601 58.5722)" class="st2 st3 st11">W</text>
<text transform="matrix(0.5388 0.8425 -0.8425 0.5388 12.2867 70.7976)" class="st2 st3 st4">E</text>
<text transform="matrix(0.7045 0.7097 -0.7097 0.7045 17.2707 78.0512)" class="st2 st3 st4">B</text>
<text transform="matrix(0.9018 0.4322 -0.4322 0.9018 28.547 87.4384)" class="st2 st3 st4">D</text>
<text transform="matrix(0.973 0.2307 -0.2307 0.973 37.1975 91.2816)" class="st2 st3 st12">E</text>
<text transform="matrix(0.9996 2.669983e-02 -2.670009e-02 0.9996 45.7974 92.9433)" class="st2 st3 st4">V</text>
<text transform="matrix(0.9846 -0.175 0.175 0.9846 54.5088 92.9038)" class="st2 st3 st4">E</text>
<text transform="matrix(0.9316 -0.3634 0.3634 0.9316 63.0722 91.1252)" class="st2 st3 st4">L</text>
<text transform="matrix(0.838 -0.5457 0.5457 0.838 70.042 88.1782)" class="st2 st3 st13">O</text>
<text transform="matrix(0.6919 -0.722 0.722 0.6919 78.6604 82.2089)" class="st2 st3 st5">P</text>
<text transform="matrix(0.5305 -0.8477 0.8477 0.5305 84.6754 75.4605)" class="st2 st3 st4">E</text>
<text transform="matrix(0.3402 -0.9403 0.9403 0.3402 89.0774 67.9267)" class="st2 st3 st4">R</text>
<text transform="matrix(0.1903 -0.9817 0.9817 0.1903 24.9512 46.6824)" class="st2 st3 st14">E</text>
<text transform="matrix(0.3135 -0.9496 0.9496 0.3135 25.6001 43.5001)" class="st2 st3 st15">n</text>
<text transform="matrix(0.4108 -0.9117 0.9117 0.4108 26.593 40.5835)" class="st2 st3 st16">t</text>
<text transform="matrix(0.4831 -0.8756 0.8756 0.4831 27.5183 38.7761)" class="st2 st3 st17">r</text>
<text transform="matrix(0.5721 -0.8201 0.8201 0.5721 28.5543 36.8737)" class="st2 st3 st15">e</text>
<text transform="matrix(0.6712 -0.7413 0.7413 0.6712 30.3394 34.454)" class="st2 st3 st14">p</text>
<text transform="matrix(0.7413 -0.6712 0.6712 0.7413 32.5534 32.0919)" class="st2 st3 st14">r</text>
<text transform="matrix(0.8083 -0.5888 0.5888 0.8083 34.0866 30.5811)" class="st2 st3 st18">e</text>
<text transform="matrix(0.871 -0.4914 0.4914 0.871 36.5965 28.9341)" class="st2 st3 st15">n</text>
<text transform="matrix(0.9229 -0.3849 0.3849 0.9229 39.2081 27.4448)" class="st2 st3 st15">e</text>
<text transform="matrix(0.9621 -0.2726 0.2726 0.9621 42.0173 26.3067)" class="st2 st3 st15">u</text>
<text transform="matrix(0.9852 -0.1712 0.1712 0.9852 44.9002 25.6148)" class="st2 st3 st15">r</text>
<text transform="matrix(0.9999 1.309005e-02 -1.309006e-02 0.9999 49.0115 25.0663)" class="st2 st3 st19">+</text>
<text transform="matrix(0.9754 0.2204 -0.2204 0.9754 54.1108 25.4536)" class="st2 st3 st15">D</text>
<text transform="matrix(0.9381 0.3464 -0.3464 0.9381 57.6705 26.2432)" class="st2 st3 st15">e</text>
<text transform="matrix(0.8924 0.4512 -0.4512 0.8924 60.4101 27.3682)" class="st2 st3 st20">s</text>
<text transform="matrix(0.8486 0.5291 -0.5291 0.8486 62.9712 28.7121)" class="st2 st3 st21">i</text>
<text transform="matrix(0.7915 0.6112 -0.6112 0.7915 64.4405 29.6075)" class="st2 st3 st16">g</text>
<text transform="matrix(0.7114 0.7028 -0.7028 0.7114 66.8218 31.5527)" class="st2 st3 st19">n</text>
<text transform="matrix(0.6239 0.7815 -0.7815 0.6239 68.9591 33.7306)" class="st2 st3 st15">e</text>
<text transform="matrix(0.5408 0.8412 -0.8412 0.5408 70.8172 36.139)" class="st2 st3 st22">r</text>
<text transform="matrix(0.378 0.9258 -0.9258 0.378 72.8129 39.7113)" class="st2 st3 st19">+</text>
<text transform="matrix(7.758887e-02 0.997 -0.997 7.758965e-02 22.1609 51.3924)" class="st2 st3 st15">+</text>
<text transform="matrix(0.28 0.96 -0.96 0.28 22.8785 56.9255)" class="st2 st3 st15">P</text>
<text transform="matrix(0.4031 0.9152 -0.9152 0.4031 24.0628 60.4804)" class="st2 st3 st15">u</text>
<text transform="matrix(0.5113 0.8594 -0.8594 0.5113 25.3819 63.5442)" class="st2 st3 st15">b</text>
<text transform="matrix(0.5919 0.806 -0.806 0.5919 27.2129 66.3966)" class="st2 st3 st15">l</text>
<text transform="matrix(0.65 0.76 -0.76 0.65 28.4208 67.8959)" class="st2 st3 st23">i</text>
<text transform="matrix(0.7121 0.7021 -0.7021 0.7121 29.6174 69.3363)" class="st2 st3 st24">s</text>
<text transform="matrix(0.7867 0.6174 -0.6174 0.7867 31.875 71.5116)" class="st2 st3 st25">h</text>
<text transform="matrix(0.853 0.5219 -0.5219 0.853 34.4932 73.549)" class="st2 st3 st26">e</text>
<text transform="matrix(0.9034 0.4288 -0.4288 0.9034 37.3731 75.1808)" class="st2 st3 st15">r</text>
<text transform="matrix(0.967 0.2546 -0.2546 0.967 41.7343 76.9133)" class="st2 st3 st15">+</text>
<text transform="matrix(0.9988 4.994011e-02 -4.994011e-02 0.9988 47.1953 78.0266)" class="st2 st3 st27">G</text>
<text transform="matrix(0.996 -8.976029e-02 8.976030e-02 0.996 51.3418 78.1075)" class="st2 st3 st19">a</text>
<text transform="matrix(0.973 -0.2307 0.2307 0.973 54.6389 77.7489)" class="st2 st3 st28">m</text>
<text transform="matrix(0.9326 -0.361 0.361 0.9326 58.8192 76.7196)" class="st2 st3 st29">e</text>
<text transform="matrix(0.8912 -0.4535 0.4535 0.8912 61.8241 75.4042)" class="st2 st3 st19">r</text>
<text transform="matrix(0.7935 -0.6086 0.6086 0.7935 65.8621 73.1149)" class="st2 st3 st15">+</text>
<text transform="matrix(0.6486 -0.7611 0.7611 0.6486 70.2075 69.4277)" class="st2 st3 st15">D</text>
<text transform="matrix(0.5424 -0.8401 0.8401 0.5424 72.629 66.3298)" class="st2 st3 st19">o</text>
<text transform="matrix(0.4311 -0.9023 0.9023 0.4311 74.4049 63.4503)" class="st2 st3 st30">g</text>
<text transform="matrix(0.2448 -0.9696 0.9696 0.2448 76.5551 58.2171)" class="st2 st3 st19">L</text>
<text transform="matrix(0.1267 -0.9919 0.9919 0.1267 77.3418 55.0524)" class="st2 st3 st15">o</text>
<text transform="matrix(2.000008e-02 -0.9998 0.9998 2.000008e-02 77.6607 51.8468)" class="st2 st3 st31">v</text>
<text transform="matrix(-8.472040e-02 -0.9964 0.9964 -8.472039e-02 77.662 49.0113)" class="st2 st3 st19">e</text>
<text transform="matrix(-0.1874 -0.9823 0.9823 -0.1874 77.3553 45.816)" class="st2 st3 st15">r</text>
<path class="st32" d="M34.1,68c0-11.8,0-23.5,0-35.3h31.8c0,11.8,0,23.5,0,35.3H34.1z M55.6,49.2c-0.3,0.2-0.6,0.3-0.8,0.4
	c-0.3,0.2-0.6,0.3-0.9,0.3c-0.6,0.1-1.2,0.2-1.8,0.2c-1.4,0.1-2.8-0.1-4.1-0.6c-0.5-0.2-0.9-0.6-1.1-1.1c0,0,0,0,0-0.1
	c0,0,0.1,0.1,0.1,0.1c0.1,0.1,0.2,0.2,0.3,0.3c0.3,0.2,0.5,0.3,0.8,0.4c0.5,0.2,1,0.3,1.5,0.3c0.6,0,1.2,0.1,1.8,0.1
	c0,0,0.1,0,0.1-0.1c0-0.1,0-0.2,0-0.3c0-0.3,0-0.7-0.1-1c-0.1-0.6-0.2-1.2-0.3-1.8c-0.4-2-0.9-3.9-1.6-5.8c-0.1-0.2-0.2-0.4-0.3-0.6
	C49.2,40,49.2,40,49.1,40c-0.1,0.1-0.2,0.1-0.3,0.2l0,0c0.2-0.1,0.3-0.2,0.5-0.3c0.1-0.1,0.2,0,0.3,0c0,0,0,0,0,0.1
	c0.1,0.1,0.1,0.3,0.2,0.4c0.3,1,0.6,2,0.9,2.9c0.5,1.6,0.9,3.2,1.2,4.8c0.1,0.4,0.1,0.9,0.2,1.3c0,0.2,0,0.2,0.2,0.2s0.3,0,0.5,0
	c0.3,0,0.5-0.1,0.8-0.1c0-0.1,0-0.1,0-0.1c-0.1-0.6-0.3-1.2-0.4-1.9c-0.4-2-0.9-3.9-1.3-5.9c-0.2-0.7-0.3-1.3-0.5-2
	c0-0.2-0.2-0.3-0.4-0.3l-0.5,0.1c0-0.1,0-0.2,0-0.3c0.1-0.7-0.1-1.3-0.5-1.8c-0.4-0.6-1.2-0.9-1.9-0.8c-0.2,0-0.4,0.1-0.5,0.2
	c0.2,0.1,0.3,0.1,0.4,0.2c0.1,0.1,0.3,0.2,0.4,0.3l0,0c-0.1,0-0.2-0.1-0.3-0.1c-0.2-0.1-0.4-0.1-0.6-0.1c-0.1,0-0.2,0-0.4,0
	c-0.1,0-0.2,0-0.3,0.1c-0.2,0.1-0.4,0.1-0.7,0.1c-0.6,0-1.1-0.1-1.6-0.4c-0.8-0.4-1.7-0.4-2.5,0c-0.3,0.2-0.7,0.4-0.9,0.7l-0.1,0.1
	c0.1,0,0.2-0.1,0.2-0.1c0.5-0.2,1-0.2,1.5,0.1c0.2,0.1,0.4,0.3,0.5,0.5c0.1,0.1,0.2,0.1,0.2,0.1l1.2,0.1h0.1v0
	c-0.3,0.2-0.7,0.4-1,0.5c0.2,0.2,0.3,0.3,0.5,0.5c0.1,0.1,0.3,0.2,0.4,0.2c0.3,0,0.7,0,1,0c0.7-0.1,1.3-0.3,1.8-0.7
	c0.3-0.2,0.7-0.4,1.1-0.5c0.6,0,1.2,0.4,1.2,1.1c0,0,0,0,0,0.1c-0.1,0-0.2,0-0.3,0.1c-0.1,0-0.3,0.1-0.4,0.2
	c-0.1,0.2-0.2,0.3-0.3,0.5c-0.1,0.1-0.1,0.1-0.2,0.2c-0.8,0.3-1.6,0.7-2.4,1c-0.2,0.1-0.4,0.3-0.5,0.5c-0.1,0.1-0.1,0.2-0.1,0.4
	c0.3,1.6,0.5,3.3,0.5,4.9c0,0,0,0.1,0,0.1l-0.9-0.5l0,0c0.1,0.2,0.3,0.4,0.4,0.7c0.1,0.3,0.3,0.6,0.4,0.8c0.1,0.4,0.2,0.9,0.3,1.3
	c0.1,0.8,0.2,1.7,0.2,2.5c0,0.4,0,0.8,0,1.2c-0.2,1-0.6,1.9-1.1,2.8c-0.1,0.2-0.3,0.4-0.4,0.6l0.1,0.1c0.7,0.4,1.5,0.7,2.3,0.8
	c1,0.3,2,0.5,3.1,0.6c0.4,0.1,0.9,0.1,1.3,0.2c1.3,0.1,2.6,0,3.8-0.2c0.9-0.1,1.7-0.3,2.6-0.5c0.1,0,0.1-0.1,0.1-0.1l0,0
	c0-0.8-0.1-1.7-0.3-2.4c-0.3-0.8-0.5-1.7-0.8-2.6c-0.4-1-0.8-2-1.3-2.9L55.6,49.2z M58.1,60.5c-0.1-0.8-0.3-1.5-0.5-2.3
	c-0.3,0-0.5,0.1-0.8,0.1c-0.8,0.1-1.5,0.1-2.3,0.2c-1.2,0.1-2.3,0.1-3.5,0c-1-0.1-2-0.2-3-0.3c-0.9-0.1-1.8-0.2-2.7-0.4
	c-0.1,0-0.2,0-0.3,0.1c-0.5,0.8-1,1.5-1.5,2.3c-0.1,0.1-0.1,0.2,0,0.2c0,0,0,0,0.1,0c0.1,0.1,0.2,0.1,0.3,0.1
	c0.4,0.2,0.8,0.3,1.2,0.3c0.4,0.1,0.7,0.1,1.1,0c0.5-0.1,0.9-0.2,1.4-0.3c0.8-0.2,1.5-0.3,2.3-0.4c0.2,0,0.4,0,0.6,0
	c-0.2,0-0.3,0-0.5,0.1c-0.5,0.1-1.1,0.3-1.6,0.4c-0.3,0.1-0.7,0.1-1,0.2c-0.6,0.2-1.3,0.2-1.9,0.2c-0.1,0-0.1,0-0.1,0.1c0,0,0,0,0,0
	c-0.2,0.7-0.4,1.4-0.6,2c-0.1,0.5-0.3,1-0.4,1.4c0,0.1-0.1,0.3-0.2,0.4c-0.1,0.1-0.1,0.1-0.2,0.2v0c0.2,0,0.4,0,0.6,0
	c0.6-0.1,1.2-0.2,1.8-0.3c0.3-0.1,0.6-0.2,0.8-0.3l3.6-2.8c0,0,0.1-0.1,0.2-0.1c0.2,0,0.5,0,0.7,0h0.2c0,0,0,0,0,0.1
	c0,0.5-0.1,1.1-0.1,1.6c0,0.1,0,0.1,0.1,0.2c0.9,0.8,2.1,1.3,3.3,1.3c0.2,0,0.2,0,0.2-0.2c0-0.2,0-0.4,0-0.6c0,0,0-0.1,0-0.1
	c0.1-0.1,0.2-0.2,0.3-0.3c0.8-0.9,1.2-2,1.2-3.2c0,0,0-0.1-0.1-0.1c0,0,0,0,0,0c-0.3-0.1-0.6-0.1-0.9,0c0,0-0.1,0-0.1,0l-0.8,0.2
	c0,0,0,0,0-0.1c0.3-0.1,0.7-0.3,1-0.4c0.5-0.2,1.1-0.2,1.6,0c0.1,0.1,0.3,0.1,0.4,0.2C57.8,60.4,58,60.4,58.1,60.5z M40.4,42.6
	c-0.1,0-0.3,0.1-0.3,0.2C40,42.9,40,43.1,40,43.2c0,0.1,0,0.2,0,0.3c-0.2-0.3,0-0.8,0.3-0.9c0,0,0,0,0,0c0-0.3,0.2-0.7,0.5-0.8
	c0,0,0-0.1,0-0.1c0-0.3,0-0.7,0-1c0-0.1,0-0.2-0.1-0.3c-0.1-0.1-0.1-0.1-0.2,0c-0.2,0.2-0.3,0.4-0.3,0.7c0,0.2,0,0.5-0.1,0.8
	c0-0.1,0-0.1,0-0.2c-0.1-0.3,0-0.7,0.2-1c0.1-0.1,0.1-0.2-0.1-0.2c-0.1,0-0.2,0-0.3,0c-0.1,0.1-0.2,0.2-0.3,0.4
	c-0.1,0.3-0.2,0.6-0.2,1c0,0.1,0,0.2,0,0.2c-0.1-0.5,0-0.9,0.1-1.4c-0.1,0-0.1,0-0.2,0.1c-0.1,0.1-0.2,0.2-0.3,0.3
	c-0.3,0.5-0.5,1.1-0.5,1.7c-0.1,1.6,0.2,3.3,1.1,4.7c0.1,0.1,0.1,0.3,0,0.4c-0.1,0.2-0.2,0.4-0.1,0.6c0.3,0.6,0.6,1.1,1,1.7
	c0.2,0.2,0.3,0.5,0.5,0.7c0.3-0.2,0.5-0.4,0.8-0.7c0,0,0.1,0.1,0.2,0.2c0.4,0.4,0.8,0.8,1.3,1.1c0.5,0.3,0.9,0.7,1.4,1
	c0.6,0.4,1,1.2,1.1,2c0,0.2,0,0.5,0,0.7c0,0,0,0,0,0c0.3-0.6,0.4-1.2,0.5-1.9c0-0.5,0-0.9,0-1.4c0-0.9-0.2-1.7-0.5-2.5
	c-0.3-0.8-0.7-1.6-1.1-2.4c0-0.1-0.1-0.1-0.2,0l0.1,0.2c0.1,0.5,0.1,1,0,1.5c0,0.1-0.1,0.2-0.2,0.3l0,0c0,0,0-0.1,0-0.1
	c0-0.3,0.1-0.6,0.1-0.9c0-0.3-0.1-0.7-0.5-0.8c-0.4-0.2-0.7-0.5-1-0.9c-0.2-0.3-0.4-0.5-0.7-0.8L42,45.2c-0.3,0.4-0.7,0.7-1,1.1
	c-0.2,0.2-0.5,0.4-0.7,0.6c0,0-0.1,0-0.1,0v0l0.9-0.7c0.4-0.3,0.7-0.8,0.9-1.3c0-0.1,0-0.1,0-0.2c-0.1-0.2-0.2-0.3-0.2-0.4
	c-0.4-0.7-0.5-1.5-0.3-2.3c0,0,0-0.1,0-0.1c-0.2-0.2-0.6-0.1-0.7,0.1c0,0-0.1,0.1-0.1,0.1L40.4,42.6z M59.1,48.9c0,0,0-0.1,0-0.1
	l0.4-1.1c0.2-0.2,0.2-0.4,0-0.6c0-0.1-0.1-0.1-0.2-0.1c0,0-0.1-0.1,0-0.2c0.4-1.1,0.5-2.2,0.4-3.3c-0.1-0.8-0.3-1.7-0.7-2.4
	c-0.2-0.3-0.4-0.6-0.7-0.9c-0.1-0.1-0.2-0.1-0.3-0.1l0.3,0.7c0.1,0.2,0.1,0.4,0.1,0.7c0-0.1-0.1-0.2-0.1-0.3c-0.1-0.3-0.2-0.7-0.5-1
	c-0.1-0.1-0.2-0.2-0.3-0.2c-0.1,0-0.2,0.1-0.2,0.1c0,0.1,0,0.1,0,0.2c0,0,0.1,0.1,0.1,0.1c0.2,0.3,0.3,0.6,0.3,0.9
	c-0.1-0.2-0.1-0.3-0.2-0.5c-0.1-0.3-0.3-0.6-0.5-0.8c-0.1-0.1-0.2,0-0.2,0.1c0,0.1,0,0.2,0,0.3c0,0.3,0.1,0.6,0.1,1
	c0,0.1,0,0.2,0.1,0.2c0,0,0,0,0,0c0.1,0,0.1,0,0.2,0.1c0.2,0.1,0.3,0.4,0.4,0.6c0.4,0.1,0.6,0.4,0.5,0.8c-0.1-0.2-0.2-0.3-0.3-0.5
	c-0.1-0.2-0.2-0.2-0.4-0.2c0-0.1,0-0.2-0.1-0.3c-0.1-0.3-0.2-0.4-0.6-0.4c-0.1,0-0.3,0.1-0.3,0.2c0,0,0,0.1,0,0.1
	c0,0.1,0.1,0.3,0.1,0.4c0.2,0.8,0.1,1.7-0.1,2.4l-0.1,0.3l1.9,1.2l0,0c-0.7-0.3-1.4-0.7-2.2-0.9c0,0,0,0,0,0.1
	c-0.1,0.6-0.3,1.2-0.7,1.8c0,0,0,0.1,0,0.1c0.7,0.8,1.2,1.8,1.6,2.8c0,0,0,0.1,0,0.1l0,0l-1.1-1.3c0.1,0.2,0.1,0.4,0.2,0.7
	c0.3,0.6,0.6,1.3,0.8,1.9c0.1,0.2,0.2,0.4,0.3,0.7c0.3-0.5,0.6-1,0.9-1.6c0.2-0.6,0.4-1.1,0.6-1.7L59.1,48.9z M51.6,39.9
	c0.5,3.2,1.3,6.4,2,9.6l0.2,0c0.5-0.1,1-0.4,1.4-0.7c0.2-0.1,0.2-0.1,0.2-0.4c0-0.3-0.1-0.6-0.2-0.9c-0.5-1.9-1.1-3.8-1.6-5.7
	c-0.2-0.5-0.3-0.9-0.3-1.4c0-0.1,0-0.1-0.1-0.2c-0.1-0.2-0.3-0.3-0.6-0.3c-0.1,0-0.2,0-0.3,0C52,39.9,51.8,39.9,51.6,39.9L51.6,39.9
	z"/>
<path class="st2" d="M55.6,49.2l0.2,0.3c0.5,0.9,0.9,1.9,1.3,2.9c0.3,0.8,0.5,1.7,0.8,2.6c0.2,0.8,0.3,1.6,0.3,2.4
	c0,0.1,0,0.1-0.1,0.1l0,0c-0.8,0.3-1.7,0.4-2.6,0.6c-1.3,0.2-2.5,0.3-3.8,0.2c-0.4,0-0.9-0.1-1.3-0.2c-1-0.1-2.1-0.3-3.1-0.6
	c-0.8-0.2-1.6-0.5-2.3-0.8l-0.1-0.1c0.1-0.2,0.3-0.4,0.4-0.6c0.6-0.8,0.9-1.8,1.1-2.8c0.1-0.4,0.1-0.8,0-1.2c0-0.8-0.1-1.7-0.2-2.5
	c-0.1-0.4-0.2-0.9-0.3-1.3c-0.1-0.3-0.2-0.6-0.4-0.8c-0.1-0.2-0.3-0.4-0.4-0.7l0,0l0.9,0.5c0-0.1,0-0.1,0-0.1c0-1.6-0.2-3.3-0.5-4.9
	c0-0.1,0-0.2,0.1-0.4c0.1-0.2,0.3-0.4,0.5-0.5c0.8-0.3,1.6-0.6,2.4-1c0.1,0,0.2-0.1,0.2-0.2c0.1-0.1,0.2-0.3,0.3-0.5
	c0.1-0.1,0.2-0.2,0.4-0.2c0.1,0,0.2,0,0.3-0.1c0-0.6-0.5-1.1-1.2-1.1c0,0,0,0-0.1,0c-0.4,0.1-0.8,0.2-1.1,0.5
	c-0.5,0.4-1.2,0.6-1.8,0.7c-0.3,0-0.7,0-1,0c-0.2,0-0.3-0.1-0.4-0.2c-0.2-0.2-0.3-0.3-0.5-0.5c0.4-0.1,0.7-0.3,1-0.5v0h-0.1
	l-1.2-0.1c-0.1,0-0.2-0.1-0.2-0.1c-0.2-0.2-0.3-0.4-0.5-0.5c-0.5-0.3-1-0.3-1.5-0.1c-0.1,0-0.2,0.1-0.2,0.1l0.1-0.1
	c0.3-0.3,0.6-0.5,0.9-0.7c0.8-0.4,1.7-0.4,2.5,0c0.5,0.3,1.1,0.4,1.6,0.4c0.2,0,0.4-0.1,0.7-0.1c0.1,0,0.2,0,0.3-0.1
	c0.1,0,0.2,0,0.4,0c0.2,0,0.4,0,0.6,0.1c0.1,0.1,0.2,0.1,0.3,0.1l0,0c-0.1-0.1-0.2-0.2-0.4-0.3c-0.1-0.1-0.3-0.2-0.4-0.2
	c0.2-0.1,0.3-0.2,0.5-0.2c0.7-0.1,1.5,0.2,1.9,0.8c0.4,0.5,0.6,1.2,0.5,1.8c0,0.1,0,0.2,0,0.3l0.5-0.1c0.2,0,0.4,0.1,0.4,0.3
	c0.2,0.7,0.4,1.3,0.5,2c0.4,2,0.9,3.9,1.3,5.9c0.1,0.6,0.3,1.2,0.4,1.9c0,0,0,0.1,0,0.1c-0.3,0-0.5,0.1-0.8,0.1c-0.2,0-0.3,0-0.5,0
	s-0.2,0-0.2-0.2c-0.1-0.4-0.1-0.9-0.2-1.3c-0.3-1.6-0.7-3.3-1.2-4.8c-0.3-1-0.6-2-0.9-2.9c-0.1-0.1-0.1-0.3-0.2-0.4
	c0-0.1-0.1-0.2-0.2-0.2c0,0-0.1,0-0.1,0c-0.2,0.1-0.3,0.2-0.5,0.3l0,0c0.1-0.1,0.2-0.1,0.3-0.2c0.1-0.1,0.2-0.1,0.3,0.1
	c0.1,0.2,0.2,0.4,0.3,0.6c0.7,1.9,1.2,3.8,1.6,5.8c0.1,0.6,0.2,1.2,0.3,1.8c0.1,0.3,0.1,0.7,0.1,1c0,0.1,0,0.2,0,0.3
	c0,0-0.1,0.1-0.1,0.1c-0.6,0-1.2,0-1.8-0.1c-0.5,0-1-0.1-1.5-0.3c-0.3-0.1-0.6-0.2-0.8-0.4c-0.1-0.1-0.2-0.2-0.3-0.3
	c0,0-0.1-0.1-0.1-0.1c0,0,0,0,0,0.1c0.2,0.5,0.6,0.9,1.1,1.1c1.3,0.5,2.7,0.8,4.1,0.6c0.6-0.1,1.2-0.2,1.8-0.2
	c0.3-0.1,0.6-0.2,0.9-0.3C55,49.5,55.3,49.4,55.6,49.2z M52.7,52c-0.2,0-0.4,0-0.6,0.1c-0.3,0.1-0.7,0.2-0.9,0.4
	c-0.5,0.4-0.7,1-0.5,1.6c0.2,1,0.8,1.6,1.8,1.7c0.6,0.1,1.2-0.2,1.6-0.7c0.3-0.4,0.5-1,0.5-1.5c0-0.6-0.4-1.2-0.9-1.5
	C53.4,52.1,53.1,52,52.7,52z M50.3,45.3c-0.1-0.3-0.2-0.6-0.3-0.9c0-0.1-0.1-0.1-0.1-0.1c0,0,0,0-0.1,0c-0.1,0-0.1,0-0.2,0.1
	c-0.4,0.2-0.8,0.3-1.2,0.5c0,0,0,0.1,0,0.1c0,0.2,0.1,0.4,0.1,0.6c0,0,0,0,0,0L50.3,45.3z M50.5,55c-0.1-0.3-0.2-0.6-0.3-0.9
	c0,0,0-0.1-0.1-0.1c-0.1,0-0.1,0-0.2,0.1c-0.1,0.1-0.1,0.2-0.2,0.2c-0.3,0.3-0.6,0.6-0.9,0.8L50.5,55z M50.3,53
	c0.2-0.2,0.3-0.4,0.5-0.7c0.1-0.1,0.1-0.2,0-0.2c-0.3-0.1-0.5-0.2-0.8-0.3c-0.2,0-0.3-0.1-0.5-0.1L50.3,53z M53.5,56.1
	c0.1,0,0.1,0.1,0.2,0.1l1,0.5c0,0,0.1,0,0.1,0l0,0l-0.5-1.1L53.5,56.1z M51.1,57.1l1.1-0.6c-0.5-0.1-0.9-0.3-1.2-0.7
	c0,0.1,0,0.1,0,0.2c0,0.2,0.1,0.4,0.1,0.6C51.1,56.7,51.1,56.9,51.1,57.1L51.1,57.1z M54.3,52.1c0.3,0.3,0.6,0.7,0.7,1.1
	c0.2-0.5,0.3-1,0.6-1.3L54.3,52.1z M46.4,43.3c0-0.1,0-0.2,0-0.3c-0.1-0.3,0-0.6,0.2-0.9c0.1-0.1,0.1-0.2,0.2-0.3
	c0.1-0.1,0-0.2-0.1-0.2c-0.2,0-0.4,0.1-0.5,0.2C46,41.9,46,42,46,42.1c0,0.2,0.1,0.4,0.1,0.7c0,0.2,0.1,0.4,0.2,0.5
	C46.3,43.3,46.3,43.4,46.4,43.3L46.4,43.3z M52.5,50.4L52.5,50.4c-0.1,0.2-0.2,0.4-0.3,0.6c-0.1,0.2-0.2,0.3-0.4,0.5
	c0.4-0.1,0.9-0.1,1.3,0C52.8,51.3,52.6,50.9,52.5,50.4L52.5,50.4z M56,54.3l-1-0.4l-0.1,0.9C55.3,54.6,55.7,54.5,56,54.3L56,54.3z
	 M46.4,44.1c-0.1,0.2-0.1,0.4-0.1,0.5c0,0,0,0,0.1,0.1c0,0,0,0,0.1,0C46.5,44.4,46.5,44.2,46.4,44.1L46.4,44.1z M46.7,44.2
	c0.1-0.1,0.1-0.3,0-0.5c0,0-0.1,0-0.1-0.1c0,0,0,0.1,0,0.1C46.6,43.9,46.6,44,46.7,44.2C46.7,44.1,46.7,44.2,46.7,44.2L46.7,44.2z"
	/>
<path class="st2" d="M58.1,60.5c-0.2,0-0.3-0.1-0.4-0.1c-0.1,0-0.3-0.1-0.4-0.2c-0.5-0.2-1.1-0.2-1.6,0c-0.3,0.1-0.7,0.2-1,0.4
	c0,0,0,0,0,0.1l0.8-0.2c0,0,0.1,0,0.1,0c0.3-0.1,0.6-0.1,0.9,0c0,0,0.1,0,0.1,0.1c0,0,0,0,0,0c0,1.2-0.4,2.3-1.2,3.2
	c-0.1,0.1-0.2,0.2-0.3,0.3c0,0,0,0.1,0,0.1c0,0.2,0,0.4,0,0.6s0,0.2-0.2,0.2c-1.2,0-2.4-0.5-3.3-1.3c-0.1,0-0.1-0.1-0.1-0.2
	c0-0.5,0.1-1.1,0.1-1.6c0,0,0,0,0-0.1h-0.2c-0.2,0-0.5,0-0.7,0c-0.1,0-0.1,0-0.2,0.1L47,64.6c-0.2,0.2-0.5,0.3-0.8,0.3
	c-0.6,0.1-1.2,0.2-1.8,0.3c-0.2,0-0.4,0-0.6,0v0c0-0.1,0.1-0.1,0.2-0.2c0.1-0.1,0.2-0.2,0.2-0.4c0.1-0.5,0.3-1,0.4-1.4
	c0.2-0.7,0.4-1.4,0.6-2c0-0.1,0.1-0.1,0.1-0.1c0,0,0,0,0,0c0.7,0.1,1.3,0,1.9-0.2c0.3-0.1,0.7-0.1,1-0.2c0.5-0.1,1.1-0.3,1.6-0.4
	c0.1,0,0.3,0,0.5-0.1c-0.2,0-0.4,0-0.6,0c-0.8,0.1-1.5,0.3-2.3,0.4c-0.5,0.1-0.9,0.2-1.4,0.3c-0.4,0-0.7,0-1.1,0
	c-0.4,0-0.8-0.1-1.2-0.3c-0.1,0-0.2-0.1-0.3-0.1c-0.1,0-0.1-0.1-0.1-0.2c0,0,0,0,0-0.1c0.5-0.8,1-1.5,1.5-2.3c0-0.1,0.2-0.1,0.3-0.1
	c0.9,0.2,1.7,0.4,2.6,0.5c1,0.1,2,0.2,3,0.3c1.2,0.1,2.3,0.1,3.5,0c0.8,0,1.5-0.1,2.3-0.2c0.3,0,0.5-0.1,0.8-0.1
	C57.9,59,58,59.7,58.1,60.5z"/>
<path class="st2" d="M40.4,42.6l0-0.5c0.1-0.3,0.4-0.4,0.7-0.3c0.1,0,0.1,0,0.1,0.1c0,0,0,0.1,0,0.1c-0.1,0.8,0,1.6,0.3,2.3
	c0.1,0.2,0.2,0.3,0.2,0.4c0,0.1,0,0.1,0,0.2c-0.1,0.5-0.4,0.9-0.9,1.3l-0.9,0.7v0c0,0,0.1,0,0.1,0c0.2-0.2,0.5-0.4,0.7-0.6
	c0.3-0.3,0.7-0.7,1-1.1l0.1-0.1c0.2,0.3,0.4,0.6,0.7,0.8c0.3,0.3,0.6,0.6,1,0.9c0.3,0.2,0.5,0.5,0.5,0.8c0,0.3-0.1,0.6-0.1,0.9
	c0,0,0,0.1,0,0.1l0,0c0.1-0.1,0.1-0.2,0.2-0.3c0.2-0.5,0.2-1,0-1.5l-0.1-0.2c0.1,0,0.1,0,0.2,0c0.4,0.8,0.8,1.6,1.1,2.4
	c0.3,0.8,0.5,1.7,0.5,2.5c0,0.5,0,0.9,0,1.4c0,0.6-0.2,1.3-0.5,1.9c0,0,0,0,0,0c0-0.2,0-0.4,0-0.7c0-0.8-0.4-1.5-1.1-2
	c-0.4-0.3-0.9-0.7-1.4-1c-0.5-0.3-0.9-0.7-1.3-1.1c-0.1-0.1-0.1-0.1-0.2-0.2c-0.2,0.2-0.5,0.5-0.8,0.7c-0.2-0.2-0.3-0.5-0.5-0.7
	c-0.4-0.5-0.7-1.1-1-1.7c-0.1-0.2-0.1-0.4,0.1-0.6c0.1-0.1,0.1-0.3,0-0.4c-0.8-1.4-1.2-3-1.1-4.7c0-0.6,0.2-1.2,0.5-1.7
	c0.1-0.1,0.2-0.2,0.3-0.3c0.1,0,0.1-0.1,0.2-0.1c-0.1,0.5-0.2,0.9-0.1,1.4c0-0.1,0-0.2,0-0.2c0-0.3,0.1-0.6,0.2-1
	c0-0.2,0.1-0.3,0.3-0.4c0.1-0.1,0.2-0.1,0.3,0c0.1,0.1,0.1,0.1,0.1,0.2c-0.2,0.3-0.2,0.7-0.2,1c0,0,0,0.1,0,0.2c0-0.3,0-0.5,0.1-0.8
	c0-0.3,0.2-0.5,0.3-0.7c0.1-0.1,0.2-0.1,0.2,0c0,0.1,0.1,0.2,0.1,0.3c0,0.3,0,0.7,0,1c0,0,0,0.1,0,0.1c-0.3,0.2-0.5,0.5-0.5,0.8
	c-0.4,0.2-0.5,0.6-0.3,0.9c0,0,0,0,0,0c0-0.1,0-0.2,0-0.3c0-0.1,0.1-0.2,0.1-0.4C40.1,42.7,40.2,42.6,40.4,42.6z"/>
<path class="st2" d="M59.1,48.9l-0.3-0.2c-0.1,0.6-0.3,1.2-0.6,1.7c-0.2,0.5-0.5,1.1-0.9,1.6c-0.1-0.2-0.2-0.5-0.3-0.7
	c-0.3-0.6-0.6-1.3-0.8-1.9c-0.1-0.2-0.2-0.4-0.2-0.7l1.1,1.3l0,0c0,0,0-0.1,0-0.1c-0.4-1-0.9-1.9-1.6-2.8c0,0,0-0.1,0-0.1
	c0.3-0.6,0.5-1.2,0.7-1.8c0,0,0,0,0-0.1c0.8,0.2,1.5,0.6,2.2,0.9l0,0l-1.9-1.1l0.1-0.3c0.3-0.8,0.3-1.6,0.1-2.4
	c0-0.1-0.1-0.3-0.1-0.4c0,0,0-0.1,0-0.1c0.1-0.1,0.2-0.2,0.3-0.2c0.4,0,0.5,0.1,0.6,0.4c0,0.1,0,0.2,0.1,0.3c0.2,0,0.3,0,0.4,0.2
	c0.1,0.2,0.2,0.3,0.3,0.5c0.1-0.4-0.2-0.7-0.5-0.8c0-0.2-0.2-0.5-0.4-0.6c0,0-0.1-0.1-0.2-0.1c-0.1,0-0.2-0.1-0.2-0.2c0,0,0,0,0,0
	c0-0.3-0.1-0.6-0.1-1c0-0.1,0-0.2,0-0.3c0-0.1,0.1-0.1,0.2-0.1c0.3,0.2,0.4,0.5,0.5,0.8c0.1,0.2,0.1,0.3,0.2,0.5
	c0-0.3-0.1-0.7-0.3-0.9c0,0-0.1-0.1-0.1-0.1c0,0,0-0.1,0-0.2c0-0.1,0.1-0.2,0.2-0.1c0.1,0,0.3,0.1,0.3,0.2c0.2,0.3,0.4,0.6,0.5,1
	c0,0.1,0.1,0.2,0.1,0.3c0-0.2,0-0.4-0.1-0.7L58.1,40c0.1,0,0.2,0,0.3,0.1c0.3,0.2,0.5,0.6,0.7,0.9c0.4,0.7,0.6,1.6,0.7,2.4
	c0.1,1.1,0,2.3-0.4,3.3c0,0.1,0,0.1,0,0.2c0.2,0.1,0.3,0.3,0.3,0.5c0,0.1-0.1,0.1-0.1,0.2L59.1,48.9C59.1,48.8,59.1,48.8,59.1,48.9z
	"/>
<path class="st2" d="M51.6,39.9c0.2,0,0.4,0,0.6,0c0.1,0,0.2,0,0.3,0c0.2,0,0.4,0.1,0.6,0.3c0,0,0.1,0.1,0.1,0.2
	c0,0.5,0.1,1,0.3,1.4c0.5,1.9,1.1,3.8,1.6,5.7c0.1,0.3,0.1,0.6,0.2,0.9c0,0.2,0,0.2-0.2,0.4c-0.4,0.3-0.9,0.5-1.4,0.7l-0.2,0
	C52.9,46.2,52.1,43.1,51.6,39.9z M52.9,45l1,0c0-0.2-0.1-0.4-0.1-0.6C53.6,44,53.6,44,53.3,44c-0.2,0-0.4,0-0.7,0L52.9,45z"/>
<path class="st32" d="M52.7,52c0.3,0,0.7,0.1,1,0.2c0.6,0.3,0.9,0.8,0.9,1.5c0,0.5-0.1,1.1-0.5,1.5c-0.4,0.5-1,0.7-1.6,0.7
	c-1-0.1-1.6-0.7-1.8-1.7c-0.2-0.6,0-1.3,0.5-1.6c0.3-0.2,0.6-0.4,0.9-0.4C52.4,52,52.5,52,52.7,52z"/>
<path class="st32" d="M50.3,45.3l-1.8,0.4c0,0,0,0,0,0c0-0.2-0.1-0.4-0.1-0.6c0,0,0-0.1,0-0.1c0.4-0.2,0.8-0.3,1.2-0.5
	c0.1,0,0.1,0,0.2-0.1c0,0,0.1,0,0.1,0c0,0,0,0,0,0.1C50.1,44.7,50.2,45,50.3,45.3z"/>
<path class="st32" d="M50.5,55L48.8,55c0.3-0.3,0.6-0.6,0.9-0.8c0.1-0.1,0.1-0.2,0.2-0.2c0,0,0.1-0.1,0.2-0.1c0,0,0.1,0.1,0.1,0.1
	C50.2,54.4,50.3,54.7,50.5,55z"/>
<path class="st32" d="M50.3,53l-0.8-1.2c0.2,0.1,0.3,0.1,0.5,0.1c0.3,0.1,0.5,0.2,0.8,0.3c0.1,0,0.1,0.1,0,0.2
	C50.7,52.5,50.5,52.7,50.3,53z"/>
<path class="st32" d="M53.5,56.1l0.9-0.5l0.5,1.1l0,0c0,0-0.1,0-0.1,0l-1-0.5C53.7,56.2,53.6,56.2,53.5,56.1z"/>
<path class="st32" d="M51.1,57.1c0-0.2,0-0.4,0-0.5c0-0.2-0.1-0.4-0.1-0.6c0-0.1,0-0.1,0-0.2c0.3,0.4,0.7,0.6,1.2,0.7L51.1,57.1z"/>
<path class="st32" d="M54.3,52.1l1.3-0.2c-0.4,0.4-0.4,0.9-0.6,1.3C54.9,52.8,54.7,52.4,54.3,52.1z"/>
<path class="st32" d="M46.4,43.3L46.4,43.3c-0.1,0.1-0.1,0-0.2,0c-0.1-0.2-0.1-0.4-0.2-0.5c0-0.2-0.1-0.4-0.1-0.7
	c0-0.1,0-0.2,0.1-0.3c0.1-0.1,0.3-0.2,0.5-0.2c0.2,0,0.2,0.1,0.1,0.2c0,0.1-0.1,0.2-0.2,0.3c-0.2,0.3-0.3,0.6-0.2,0.9
	C46.4,43.1,46.4,43.2,46.4,43.3z"/>
<path class="st32" d="M52.5,50.4c0.1,0.4,0.3,0.8,0.7,1.1c-0.4-0.1-0.9-0.1-1.3,0c0.1-0.2,0.3-0.4,0.4-0.5S52.4,50.6,52.5,50.4
	L52.5,50.4L52.5,50.4z"/>
<path class="st32" d="M56,54.3c-0.3,0.2-0.7,0.3-1.1,0.5l0.1-0.9L56,54.3z"/>
<path class="st32" d="M46.4,44.1c0.1,0.2,0.1,0.4,0.1,0.6c0,0,0,0-0.1,0c0,0-0.1,0-0.1-0.1C46.3,44.4,46.4,44.2,46.4,44.1z"/>
<path class="st32" d="M46.7,44.2C46.7,44.1,46.7,44.1,46.7,44.2c-0.1-0.2-0.1-0.3-0.1-0.4c0,0,0-0.1,0-0.1c0,0,0.1,0,0.1,0.1
	C46.8,43.8,46.8,44,46.7,44.2z"/>
<path class="st32" d="M52.8,45l-0.2-0.9c0.2,0,0.4,0,0.7,0c0.3,0,0.3,0,0.4,0.3c0,0.2,0.1,0.4,0.1,0.6L52.8,45z"/>
</svg>
